<svg xmlns="http://www.w3.org/2000/svg" viewBox="0 0 32 32" width="32" height="32">
  <defs>
    <linearGradient id="cakeGradient" x1="0%" y1="0%" x2="100%" y2="100%">
      <stop offset="0%" style="stop-color:#F653A6;stop-opacity:1" />
      <stop offset="100%" style="stop-color:#541388;stop-opacity:1" />
    </linearGradient>
    <linearGradient id="frostingGradient" x1="0%" y1="0%" x2="100%" y2="100%">
      <stop offset="0%" style="stop-color:#E7E6F7;stop-opacity:1" />
      <stop offset="100%" style="stop-color:#C6D2ED;stop-opacity:1" />
    </linearGradient>
  </defs>
  
  <!-- Background circle -->
  <circle cx="16" cy="16" r="15" fill="#541388" stroke="#F653A6" stroke-width="2"/>
  
  <!-- Cake base -->
  <rect x="8" y="18" width="16" height="8" rx="2" fill="url(#cakeGradient)"/>
  
  <!-- Cake middle layer -->
  <rect x="9" y="14" width="14" height="6" rx="1.5" fill="url(#frostingGradient)"/>
  
  <!-- Cake top layer -->
  <rect x="10" y="10" width="12" height="6" rx="1.5" fill="url(#cakeGradient)"/>
  
  <!-- Frosting on top -->
  <ellipse cx="16" cy="10" rx="6" ry="2" fill="url(#frostingGradient)"/>
  
  <!-- Cherry on top -->
  <circle cx="16" cy="8" r="1.5" fill="#F653A6"/>
  
  <!-- Decorative dots on layers -->
  <circle cx="12" cy="16" r="0.5" fill="#F653A6"/>
  <circle cx="20" cy="16" r="0.5" fill="#F653A6"/>
  <circle cx="14" cy="22" r="0.5" fill="#E7E6F7"/>
  <circle cx="18" cy="22" r="0.5" fill="#E7E6F7"/>
  
  <!-- Sparkle effect -->
  <path d="M24 10 L25 8 L26 10 L25 12 Z" fill="#F653A6" opacity="0.8"/>
  <path d="M6 20 L7 18 L8 20 L7 22 Z" fill="#F653A6" opacity="0.6"/>
  <circle cx="25" cy="22" r="0.5" fill="#E7E6F7" opacity="0.8"/>
</svg>
